<svg width="19" height="21" viewBox="0 0 19 21" fill="none" xmlns="http://www.w3.org/2000/svg">
<path d="M18 16.5V4.5M17.5 17H16.5M16.5 18H12.5M11.5 17H12.5M11 16.5V4.5M12.5 3H16.5M16.5 4H17.5M11.5 4H12.5" stroke="black"/>
<path d="M12.5 5H17.5M16 3.5V6H14M12.5 6H14M14 17.5V6" stroke="#DAD45E"/>
<path d="M17 5.5V16.5M16 6.5V17.5M12 5.5V16.5M13 6.5V17.5M15 17.5V6.5" stroke="#D27D2C"/>
<path d="M12.5 4H15.5M11.5 5H12.5" stroke="#DEEED6"/>
<path d="M11.5 15H12.5M12.5 16H16.5M16.5 15H17.5M11.5 13H12.5M12.5 14H16.5M16.5 13H17.5M11.5 11H12.5M12.5 12H16.5M16.5 11H17.5M11.5 9H12.5M12.5 10H16.5M16.5 9H17.5M11.5 7H12.5M12.5 8H16.5M16.5 7H17.5" stroke="#854C30"/>
<path d="M11 16.5V2.5M10.5 17H9.5M9.5 18H5.5M4.5 17H5.5M4 16.5V2.5M5.5 1H9.5M9.5 2H10.5M4.5 2H5.5" stroke="black"/>
<path d="M5.5 3H10.5M9 1.5V4H7M5.5 4H7M7 17.5V4" stroke="#DAD45E"/>
<path d="M10 3.5V16.5M9 4.5V17.5M5 3.5V16.5M6 4.5V17.5M8 17.5V4.5" stroke="#D27D2C"/>
<path d="M5.5 2H8.5M4.5 3H5.5" stroke="#DEEED6"/>
<path d="M4.5 15H5.5M5.5 16H9.5M9.5 15H10.5M4.5 13H5.5M5.5 14H9.5M9.5 13H10.5M4.5 11H5.5M5.5 12H9.5M9.5 11H10.5M4.5 9H5.5M5.5 10H9.5M9.5 9H10.5M4.5 7H5.5M5.5 8H9.5M9.5 7H10.5M4.5 5H5.5M5.5 6H9.5M9.5 5H10.5" stroke="#854C30"/>
<path d="M14 18.5V8.5M13.5 19H12.5M12.5 20H8.5M7.5 19H8.5M7 18.5V8.5M8.5 7H12.5M12.5 8H13.5M7.5 8H8.5" stroke="black"/>
<path d="M8.5 9H13.5M12 7.5V10H10M8.5 10H10M10 19.5V10" stroke="#DAD45E"/>
<path d="M13 9.5V18.5M12 10.5V19.5M8 9.5V18.5M9 10.5V19.5M11 19.5V10.5" stroke="#D27D2C"/>
<path d="M8.5 8H11.5M7.5 9H8.5" stroke="#DEEED6"/>
<path d="M7.5 17H8.5M8.5 18H12.5M12.5 17H13.5M7.5 15H8.5M8.5 16H12.5M12.5 15H13.5M7.5 13H8.5M8.5 14H12.5M12.5 13H13.5M7.5 11H8.5M8.5 12H12.5M12.5 11H13.5" stroke="#854C30"/>
<path d="M2.5 14H7.5M6 12.5V15M6 15.5V15M2.5 15H4M6 15H4M4 16.5V15" stroke="#DAD45E"/>
<path d="M1.5 15H2.5M2.5 16H3.5M4.5 16H6.5M6.5 15H7.5" stroke="#D27D2C"/>
<path d="M2.5 12H6.5M6.5 13H7.5M8 13.5V15.5M7.5 16H6.5M6.5 17H2.5M1.5 16H2.5M1 15.5V13.5M1.5 13H2.5" stroke="black"/>
<path d="M2.5 13H5.5M1.5 14H2.5" stroke="#DEEED6"/>
<rect x="3" y="19" width="1" height="1" fill="black"/>
<rect width="1" height="1" transform="matrix(4.37114e-08 -1 -1 -4.37114e-08 3 19)" fill="black"/>
<rect x="4" y="19" width="1" height="1" fill="black"/>
<rect width="1" height="1" transform="matrix(4.37114e-08 -1 -1 -4.37114e-08 3 18)" fill="black"/>
<rect x="5" y="19" width="1" height="1" fill="black"/>
<rect width="1" height="1" transform="matrix(4.37114e-08 -1 -1 -4.37114e-08 3 17)" fill="black"/>
<rect x="6" y="18" width="1" height="1" fill="black"/>
<rect width="1" height="1" transform="matrix(4.37114e-08 -1 -1 -4.37114e-08 4 16)" fill="black"/>
<rect x="7" y="17" width="1" height="1" fill="black"/>
<rect x="7" y="16" width="1" height="1" fill="#854C30"/>
<rect x="7" y="15" width="1" height="1" fill="#D27D2C"/>
<rect x="6" y="16" width="1" height="1" fill="#D27D2C"/>
<rect x="3" y="16" width="1" height="1" fill="#DEEED6"/>
<rect x="4" y="15" width="1" height="1" fill="#DEEED6"/>
<rect x="5" y="14" width="1" height="1" fill="#DAD45E"/>
<rect x="6" y="14" width="1" height="1" fill="#DAD45E"/>
<rect x="7" y="14" width="1" height="1" fill="#DAD45E"/>
<rect x="6" y="15" width="1" height="1" fill="#DAD45E"/>
<rect x="5" y="15" width="1" height="1" fill="#DAD45E"/>
<rect x="5" y="16" width="1" height="1" fill="#DAD45E"/>
<rect x="4" y="16" width="1" height="1" fill="#DAD45E"/>
<rect x="4" y="17" width="1" height="1" fill="#DAD45E"/>
<rect x="3" y="17" width="1" height="1" fill="#DAD45E"/>
<rect x="5" y="17" width="1" height="1" fill="#D27D2C"/>
<rect x="3" y="18" width="1" height="1" fill="#D27D2C"/>
<rect x="6" y="17" width="1" height="1" fill="#854C30"/>
<rect x="5" y="18" width="1" height="1" fill="#854C30"/>
<rect x="4" y="18" width="1" height="1" fill="#854C30"/>
<rect width="1" height="1" transform="matrix(4.37114e-08 -1 -1 -4.37114e-08 5 15)" fill="black"/>
<rect x="8" y="16" width="1" height="1" fill="black"/>
<rect width="1" height="1" transform="matrix(4.37114e-08 -1 -1 -4.37114e-08 6 14)" fill="black"/>
<rect x="8" y="15" width="1" height="1" fill="black"/>
<rect width="1" height="1" transform="matrix(4.37114e-08 -1 -1 -4.37114e-08 7 14)" fill="black"/>
<rect x="8" y="14" width="1" height="1" fill="black"/>
<rect width="1" height="1" transform="matrix(4.37114e-08 -1 -1 -4.37114e-08 8 14)" fill="black"/>
</svg>
